<svg width="80" height="80" viewBox="0 0 80 80" fill="none" xmlns="http://www.w3.org/2000/svg">
<g clip-path="url(#clip0_1_584)">
<path d="M19.9923 35.5139L21.3985 38.5936L19.9923 41.992C19.1079 42.453 17.9923 42.3139 17.2485 41.5717L11.797 36.1186L4.00166 43.9155C3.08604 44.8311 1.60166 44.8295 0.686035 43.9155C-0.228027 42.9999 -0.228027 41.5155 0.686035 40.5999L10.1392 31.1467C11.0548 30.2327 12.5392 30.2327 13.4548 31.1467L18.9063 36.5999L19.9923 35.5139Z" fill="#043B72"/>
<path d="M78.4375 80H39.9834V70L40.9456 69.5312H79.0225L80 70V78.4375C80 79.3005 79.3004 80 78.4375 80Z" fill="#FBBD43"/>
<path d="M80 70V78.4375C80 79.3 79.3 80 78.4375 80H60.0078V69.5312H79.0219L80 70Z" fill="#F58220"/>
<path d="M80 60L78.8581 60.4688H41.3581L39.9834 60V50L41.2661 49.5312H78.8301L80 50V60Z" fill="#FBBD43"/>
<path d="M80 50V60L78.8578 60.4688H60.0078V49.5312H78.8297L80 50Z" fill="#F58220"/>
<path d="M79.9999 50H40.0571V41.5625C40.0571 40.6995 40.7567 40 41.6196 40H78.4374C79.3004 40 79.9999 40.6995 79.9999 41.5625V50Z" fill="#FEDD33"/>
<path d="M80 41.5625V50H60.0078V40H78.4375C79.3 40 80 40.7 80 41.5625Z" fill="#FBBD43"/>
<path d="M39.9834 60H80V70H39.9834V60Z" fill="#FEDD33"/>
<path d="M60.0078 60H80V70H60.0078V60Z" fill="#FBBD43"/>
<path d="M39.9834 70L39.0866 70.4687H0.945469L0 70V61.5625C0 60.6995 0.699531 60 1.5625 60H39.9834V70Z" fill="#FEDD33"/>
<path d="M39.9828 60V70L39.0859 70.4687H19.9922V60H39.9828Z" fill="#FBBD43"/>
<path d="M39.9834 80H1.5625C0.699531 80 0 79.3005 0 78.4375V70H39.9834V80Z" fill="#FBBD43"/>
<path d="M19.9922 70H39.9828V80H19.9922V70Z" fill="#F58220"/>
<path d="M67.6789 38.449C77.8811 34.2201 82.7235 22.5214 78.4946 12.3192C74.2658 2.11693 62.5671 -2.72546 52.3649 1.50339C42.1626 5.73224 37.3202 17.4309 41.5491 27.6332C45.7779 37.8354 57.4766 42.6778 67.6789 38.449Z" fill="#F58220"/>
<path d="M80.0005 19.9922C80.0005 31.0156 71.0317 39.9844 60.0083 39.9844V0C71.0317 0 80.0005 8.96875 80.0005 19.9922Z" fill="#F58220"/>
<path d="M74.1711 25.8531C77.4084 18.043 73.7014 9.0872 65.8913 5.84988C58.0811 2.61256 49.1254 6.31957 45.8881 14.1297C42.6507 21.9399 46.3577 30.8956 54.1679 34.1329C61.978 37.3703 70.9338 33.6633 74.1711 25.8531Z" fill="#FFC01C"/>
<path d="M75.313 19.9922C75.313 28.4312 68.4474 35.2969 60.0083 35.2969V4.6875C68.4474 4.6875 75.313 11.5531 75.313 19.9922Z" fill="#FFC01C"/>
<path d="M62.5013 17.6873C61.1784 17.2196 59.0782 16.5027 58.4984 15.5999C57.9748 14.7848 58.8556 14.0056 59.984 13.9417C61.1763 13.874 61.7484 14.4517 62.1095 14.7846C63.061 15.662 64.5438 15.6023 65.4212 14.6506C66.2987 13.699 66.2387 12.2162 65.2873 11.3387C65.0757 11.1738 64.2095 10.1245 62.2471 9.55353V9.35571C62.2471 8.06134 61.1978 7.01196 59.9034 7.01196C58.609 7.01196 57.5596 8.06134 57.5596 9.35571V9.6954C53.3365 11.2304 52.3656 16.9962 55.584 19.5209C56.9976 20.6296 58.9931 21.419 60.939 22.107C62.1006 22.5174 62.2187 23.3504 62.1135 23.9767C61.9963 24.6743 61.3954 25.8579 59.8878 25.8679C58.3231 25.8774 57.9556 25.8204 56.8132 25.0731C55.7298 24.3645 54.2775 24.6681 53.5687 25.7513C52.8601 26.8346 53.1637 28.2871 54.247 28.9957C55.4932 29.811 56.4798 30.2151 57.5595 30.4045V30.629C57.5595 31.9234 58.6089 32.9727 59.9032 32.9727C61.1976 32.9727 62.247 31.9234 62.247 30.629V30.1396C67.9262 28.0867 68.6787 19.8707 62.5013 17.6873Z" fill="white"/>
<path d="M62.1099 14.7846C63.0614 15.6627 64.5442 15.6018 65.4208 14.6502C66.2989 13.6987 66.2396 12.2159 65.288 11.3393C65.0755 11.1737 64.2099 10.1252 62.2474 9.55337V9.35649C62.2474 8.09712 61.2536 7.07056 60.0083 7.01587V13.9409C61.1849 13.8815 61.7521 14.4549 62.1099 14.7846ZM62.5021 17.6877C61.7771 17.4315 60.8208 17.1002 60.0083 16.7049V21.769C61.0685 22.1652 62.3777 22.4162 62.113 23.9768C61.9989 24.6549 61.4286 25.794 60.0083 25.8627V32.969C61.2536 32.9143 62.2474 31.8877 62.2474 30.6284V30.1393C67.9255 28.0862 68.6786 19.8706 62.5021 17.6877Z" fill="white"/>
<path d="M32.9688 28.1958C32.9688 26.9241 31.9417 25.8521 30.625 25.8521C26.0928 25.8521 28.1708 25.8521 23.5938 25.8521C22.2994 25.8521 21.25 26.9014 21.25 28.1958C21.25 29.4902 22.2994 30.5396 23.5938 30.5396C23.6509 30.5396 25.0559 30.5396 24.9672 30.5396L19.9922 35.5146V41.9927C20.1984 41.8849 20.3906 41.7458 20.5641 41.5724L28.2813 33.8536V35.2271C28.2813 36.5214 29.3306 37.5708 30.625 37.5708C30.6406 37.5636 32.7505 37.4969 32.9567 35.4666C32.9752 35.2843 32.9689 28.3896 32.9688 28.1958Z" fill="#043B72"/>
</g>
<defs>
<clipPath id="clip0_1_584">
<rect width="80" height="80" fill="white"/>
</clipPath>
</defs>
</svg>
