<svg width="80" height="80" viewBox="0 0 80 80" fill="none" xmlns="http://www.w3.org/2000/svg">
<g clip-path="url(#clip0_1_608)">
<path d="M56.2189 67.0781L40 62.3906L23.7811 67.0781C23.6406 67.3594 23.5938 67.6406 23.5938 67.9688V77.6562H56.4062V67.9688C56.4062 67.6406 56.3594 67.3594 56.2189 67.0781Z" fill="#043B72"/>
<path d="M56.4062 77.6562V67.9688C56.4062 67.6406 56.3594 67.3594 56.2189 67.0781L40 62.3906V77.6562H56.4062Z" fill="#043B72"/>
<path d="M77.6562 4.6875H65.6805C65.7011 3.89578 65.7812 3.15 65.7812 2.34375C65.7812 1.03109 64.7502 0 63.4375 0H16.5625C15.2498 0 14.2188 1.03109 14.2188 2.34375C14.2188 3.15 14.2989 3.89578 14.3192 4.6875H2.34375C1.04828 4.6875 0 5.73578 0 7.03125V12.9684C0 26.055 10.4831 36.6858 23.402 37.3702C26.0934 41.0758 29.2877 43.8258 32.9219 45.375C32.3594 56.7656 25.8438 64.6875 24.297 66.3283C24.0625 66.5156 23.875 66.7969 23.7812 67.0781H56.2189C56.125 66.7969 55.9377 66.5156 55.7031 66.3283C54.1094 64.6875 47.6406 56.8125 47.0781 45.375C50.7131 43.8255 53.9266 41.0748 56.6202 37.3678C69.528 36.6723 80 26.0477 80 12.9684V7.03125C80 5.73578 78.9517 4.6875 77.6562 4.6875ZM4.6875 12.9684V9.375H14.5203C15.1286 17.1216 16.8084 25.3259 20.3391 32.2981C11.4891 30.3052 4.6875 22.413 4.6875 12.9684ZM75.3125 12.9684C75.3125 22.4081 68.517 30.2966 59.6736 32.2941C63.1763 25.322 64.8655 17.197 65.4797 9.375H75.3125V12.9684Z" fill="#F58220"/>
<path d="M77.6562 4.6875H65.6805C65.7011 3.89578 65.7812 3.15 65.7812 2.34375C65.7812 1.03109 64.7502 0 63.4375 0H40V67.0781H56.2189C56.125 66.7969 55.9377 66.5156 55.7031 66.3283C54.1094 64.6875 47.6406 56.8125 47.0781 45.375C50.7131 43.8255 53.9266 41.0748 56.6202 37.3678C69.528 36.6723 80 26.0477 80 12.9684V7.03125C80 5.73578 78.9517 4.6875 77.6562 4.6875ZM75.3125 12.9684C75.3125 22.4081 68.517 30.2966 59.6736 32.2941C63.1766 25.322 64.8658 17.197 65.4797 9.375H75.3125V12.9684Z" fill="#F58220"/>
<path d="M43.7399 29.8119L39.9999 27.8686L36.2599 29.8119C35.4771 30.2147 34.5204 30.1483 33.8018 29.6287C33.0831 29.1069 32.7215 28.2234 32.8679 27.349L33.5546 23.1856L30.5563 20.2262C29.9037 19.59 29.7041 18.6467 29.9704 17.8322C30.2451 16.9898 30.9729 16.3719 31.8518 16.2392L36.0174 15.612L37.9034 11.8423C38.6999 10.2539 41.2999 10.2539 42.0965 11.8423L43.9824 15.612L48.1481 16.2392C49.027 16.372 49.7548 16.99 50.0295 17.8322C50.3041 18.6767 50.0798 19.6037 49.4435 20.2262L46.4452 23.1856L47.132 27.349C47.2785 28.2234 46.9168 29.1069 46.1981 29.6287C45.4841 30.1461 44.5291 30.2225 43.7399 29.8119Z" fill="white"/>
<path d="M43.74 29.8118C44.5294 30.2224 45.4844 30.146 46.1981 29.6287C46.9169 29.1068 47.2784 28.2234 47.132 27.349L46.4453 23.1856L49.4436 20.2262C50.0798 19.6037 50.3042 18.6767 50.0295 17.8321C49.7548 16.9898 49.027 16.3718 48.1481 16.2392L43.9825 15.612L42.0966 11.8423C41.6983 11.0481 40.8492 10.6509 40 10.6509V27.8685L43.74 29.8118Z" fill="white"/>
<path d="M58.75 80H21.25C19.9545 80 18.9062 78.9517 18.9062 77.6562C18.9062 76.3608 19.9545 75.3125 21.25 75.3125H58.75C60.0455 75.3125 61.0938 76.3608 61.0938 77.6562C61.0938 78.9517 60.0455 80 58.75 80Z" fill="#043B72"/>
<path d="M58.75 75.3125H40V80H58.75C60.0455 80 61.0938 78.9517 61.0938 77.6562C61.0938 76.3608 60.0455 75.3125 58.75 75.3125Z" fill="#043B72"/>
</g>
<defs>
<clipPath id="clip0_1_608">
<rect width="80" height="80" fill="white"/>
</clipPath>
</defs>
</svg>
