<svg width="20" height="21" viewBox="0 0 20 21" fill="none" xmlns="http://www.w3.org/2000/svg">
<g clip-path="url(#clip0_1_1163)">
<path d="M20 3.8335H0V17.167H20V3.8335Z" fill="#F0F0F0"/>
<path d="M11.25 3.83301H8.75V9.24965H0V11.7496H8.75V17.1663H11.25V11.7496H20V9.24965H11.25V3.83301Z" fill="#D80027"/>
<path d="M15.3823 12.8188L20.0001 15.3843V12.8188H15.3823Z" fill="#0052B4"/>
<path d="M12.1738 12.8188L19.9999 17.1667V15.9372L14.3869 12.8188H12.1738Z" fill="#0052B4"/>
<path d="M17.9153 17.1666L12.1738 13.9766V17.1666H17.9153Z" fill="#0052B4"/>
<path d="M12.1738 12.8188L19.9999 17.1667V15.9372L14.3869 12.8188H12.1738Z" fill="#F0F0F0"/>
<path d="M12.1738 12.8188L19.9999 17.1667V15.9372L14.3869 12.8188H12.1738Z" fill="#D80027"/>
<path d="M3.52895 12.8188L0 14.7794V12.8188H3.52895Z" fill="#0052B4"/>
<path d="M7.82596 13.3716V17.1665H0.995605L7.82596 13.3716Z" fill="#0052B4"/>
<path d="M5.61301 12.8188L0 15.9372V17.1667L7.82609 12.8188H5.61301Z" fill="#D80027"/>
<path d="M4.61777 8.1807L0 5.61523V8.1807H4.61777Z" fill="#0052B4"/>
<path d="M7.82609 8.18082L0 3.83301V5.06246L5.61301 8.18082H7.82609Z" fill="#0052B4"/>
<path d="M2.08447 3.83301L7.82596 7.02301V3.83301H2.08447Z" fill="#0052B4"/>
<path d="M7.82609 8.18082L0 3.83301V5.06246L5.61301 8.18082H7.82609Z" fill="#F0F0F0"/>
<path d="M7.82609 8.18082L0 3.83301V5.06246L5.61301 8.18082H7.82609Z" fill="#D80027"/>
<path d="M16.4712 8.18076L20.0001 6.22021V8.18076H16.4712Z" fill="#0052B4"/>
<path d="M12.1738 7.62796V3.83301H19.0042L12.1738 7.62796Z" fill="#0052B4"/>
<path d="M14.3869 8.18082L19.9999 5.06246V3.83301L12.1738 8.18082H14.3869Z" fill="#D80027"/>
</g>
<defs>
<clipPath id="clip0_1_1163">
<rect width="20" height="20" fill="white" transform="translate(0 0.5)"/>
</clipPath>
</defs>
</svg>
