<svg width="20" height="21" viewBox="0 0 20 21" fill="none" xmlns="http://www.w3.org/2000/svg">
<path d="M18.6328 0.5H1.32812C0.585938 0.5 0 1.125 0 1.86719V19.1719C0 19.9141 0.585938 20.5 1.32812 20.5H18.6328C19.375 20.5 20 19.9141 20 19.1719V1.86719C20 1.125 19.375 0.5 18.6328 0.5ZM9.0625 18.625H1.875V11.4375H9.0625V18.625ZM9.0625 9.5625H1.875V2.375H9.0625V9.5625ZM18.125 18.625H10.9375V11.4375H18.125V18.625ZM18.125 9.5625H10.9375V2.375H18.125V9.5625ZM4.0625 6.75H7.1875C7.34375 6.75 7.5 6.63281 7.5 6.4375V5.8125C7.5 5.65625 7.34375 5.5 7.1875 5.5H4.0625C3.86719 5.5 3.75 5.65625 3.75 5.8125V6.4375C3.75 6.63281 3.86719 6.75 4.0625 6.75ZM12.8125 16.4375H15.9375C16.0938 16.4375 16.25 16.3203 16.25 16.125V15.5C16.25 15.3438 16.0938 15.1875 15.9375 15.1875H12.8125C12.6172 15.1875 12.5 15.3438 12.5 15.5V16.125C12.5 16.3203 12.6172 16.4375 12.8125 16.4375ZM12.8125 14.5625H15.9375C16.0938 14.5625 16.25 14.4453 16.25 14.25V13.625C16.25 13.4688 16.0938 13.3125 15.9375 13.3125H12.8125C12.6172 13.3125 12.5 13.4688 12.5 13.625V14.25C12.5 14.4453 12.6172 14.5625 12.8125 14.5625ZM12.8125 6.75H13.75V7.6875C13.75 7.88281 13.8672 8 14.0625 8H14.6875C14.8438 8 15 7.88281 15 7.6875V6.75H15.9375C16.0938 6.75 16.25 6.63281 16.25 6.4375V5.8125C16.25 5.65625 16.0938 5.5 15.9375 5.5H15V4.5625C15 4.40625 14.8438 4.25 14.6875 4.25H14.0625C13.8672 4.25 13.75 4.40625 13.75 4.5625V5.5H12.8125C12.6172 5.5 12.5 5.65625 12.5 5.8125V6.4375C12.5 6.63281 12.6172 6.75 12.8125 6.75ZM4.0625 16.0078L4.49219 16.4375C4.60938 16.5547 4.80469 16.5547 4.96094 16.4375L5.625 15.7734L6.25 16.4375C6.40625 16.5547 6.60156 16.5547 6.71875 16.4375L7.14844 16.0078C7.26562 15.8906 7.26562 15.6953 7.14844 15.5391L6.48438 14.875L7.14844 14.25C7.26562 14.0938 7.26562 13.8984 7.14844 13.7812L6.71875 13.3516C6.60156 13.2344 6.40625 13.2344 6.25 13.3516L5.625 14.0156L4.96094 13.3516C4.80469 13.2344 4.60938 13.2344 4.49219 13.3516L4.0625 13.7812C3.94531 13.8984 3.94531 14.0938 4.0625 14.25L4.72656 14.875L4.0625 15.5391C3.94531 15.6953 3.94531 15.8906 4.0625 16.0078Z" fill="white"/>
</svg>
