<svg width="23" height="19" viewBox="0 0 23 19" fill="none" xmlns="http://www.w3.org/2000/svg">
<path d="M21.0312 14.6172C22.0859 13.5625 22.75 12.2344 22.75 10.75C22.75 7.625 19.7422 5.04688 15.8359 4.61719C14.625 2.35156 11.7344 0.75 8.375 0.75C3.88281 0.75 0.25 3.5625 0.25 7C0.25 8.44531 0.875 9.77344 1.96875 10.8672C1.34375 12.0391 0.484375 12.9766 0.484375 13.0156C0.25 13.25 0.171875 13.6406 0.289062 13.9922C0.445312 14.3047 0.757812 14.5391 1.14844 14.5391C3.21875 14.5391 4.89844 13.7188 6.03125 13.0156C6.38281 13.0938 6.77344 13.1328 7.125 13.2109C8.375 15.4375 11.2266 17 14.625 17C15.4062 17 16.1875 16.9219 16.9297 16.7656C18.0625 17.4688 19.7422 18.25 21.8516 18.25C22.2031 18.25 22.5156 18.0547 22.6719 17.7031C22.7891 17.3906 22.75 17 22.4766 16.7266C22.4766 16.7266 21.6172 15.7891 21.0312 14.6172ZM5.67969 10.9844L5.01562 11.4141C4.46875 11.8047 3.88281 12.0781 3.33594 12.2734C3.41406 12.0781 3.53125 11.8828 3.64844 11.6875L4.23438 10.4766L3.25781 9.5C2.75 8.99219 2.125 8.13281 2.125 7C2.125 4.65625 4.97656 2.625 8.375 2.625C11.7344 2.625 14.625 4.65625 14.625 7C14.625 9.38281 11.7344 11.375 8.375 11.375C7.71094 11.375 7.08594 11.3359 6.46094 11.1797L5.67969 10.9844ZM19.7031 13.25L18.7266 14.2266L19.3516 15.4375C19.4297 15.6328 19.5469 15.8281 19.6641 16.0234C19.0781 15.8281 18.5312 15.5156 17.9844 15.1641L17.2812 14.7344L16.5391 14.9297C15.9141 15.0859 15.25 15.125 14.625 15.125C12.5156 15.125 10.6016 14.3438 9.46875 13.2109C13.4531 12.7812 16.5 10.1641 16.5 7C16.5 6.88281 16.4609 6.76562 16.4609 6.60938C18.9609 7.19531 20.875 8.83594 20.875 10.75C20.875 11.8828 20.2109 12.7422 19.7031 13.25Z" fill="white"/>
</svg>
