<svg width="22" height="21" viewBox="0 0 22 21" fill="none" xmlns="http://www.w3.org/2000/svg">
<path d="M19.6328 1.39844C20.0495 1.47656 20.388 1.6849 20.6484 2.02344C20.9089 2.33594 21.0391 2.71354 21.0391 3.15625C21.0391 5.5 20.5703 7.7526 19.6328 9.91406C18.7214 12.0495 17.4844 13.8984 15.9219 15.4609C14.3854 16.9974 12.5495 18.2214 10.4141 19.1328C8.27865 20.0443 6.02604 20.5 3.65625 20.5C3.23958 20.5 2.86198 20.3698 2.52344 20.1094C2.21094 19.849 2.01562 19.5104 1.9375 19.0938L1.07812 15.4219C0.973958 15.0052 1.01302 14.6016 1.19531 14.2109C1.40365 13.8203 1.71615 13.5469 2.13281 13.3906L6.07812 11.6719C6.44271 11.5156 6.82031 11.4896 7.21094 11.5938C7.60156 11.6979 7.92708 11.9062 8.1875 12.2188L9.4375 13.7812C11.5469 12.6354 13.1745 11.0078 14.3203 8.89844L12.7578 7.64844C12.4453 7.38802 12.237 7.0625 12.1328 6.67188C12.0547 6.28125 12.0807 5.90365 12.2109 5.53906L13.9297 1.59375C14.112 1.17708 14.3854 0.877604 14.75 0.695312C15.1406 0.486979 15.5443 0.434896 15.9609 0.539062L19.6328 1.39844ZM3.73438 18.625C6.52083 18.625 9.09896 17.9349 11.4688 16.5547C13.8385 15.1745 15.7135 13.2995 17.0938 10.9297C18.474 8.5599 19.1641 5.98177 19.1641 3.19531L15.6094 2.375L13.9688 6.24219L16.625 8.39062C15.7396 10.3177 14.7109 11.8542 13.5391 13C12.3932 14.1458 10.8568 15.1745 8.92969 16.0859L6.78125 13.4297L2.91406 15.0703L3.73438 18.625Z" fill="white"/>
</svg>
